<?xml version="1.0" standalone="no"?>
<!DOCTYPE svg PUBLIC "-//W3C//DTD SVG 20010904//EN"
 "http://www.w3.org/TR/2001/REC-SVG-20010904/DTD/svg10.dtd">
<svg version="1.0" xmlns="http://www.w3.org/2000/svg"
 width="352.000000pt" height="352.000000pt" viewBox="0 0 352.000000 352.000000"
 preserveAspectRatio="xMidYMid meet">
<metadata>
Created by potrace 1.14, written by Peter Selinger 2001-2017
</metadata>
<g transform="translate(0.000000,352.000000) scale(0.100000,-0.100000)"
fill="#000000" stroke="none">
<path d="M2903 3053 c-9 -3 -11 -39 -7 -141 3 -75 7 -138 9 -140 2 -3 11 -2
20 1 11 5 15 23 17 69 0 35 3 48 5 31 2 -18 9 -33 14 -33 22 0 49 22 49 39 0
17 8 19 73 17 l72 -1 3 -62 c2 -47 7 -63 17 -63 11 0 15 12 15 44 0 23 3 70 6
103 6 53 4 63 -15 82 -19 19 -32 21 -121 21 -64 0 -100 4 -100 11 0 6 -8 8
-19 4 -12 -4 -21 -1 -23 8 -2 8 -8 12 -15 10z"/>
<path d="M823 3003 c9 -2 23 -2 30 0 6 3 -1 5 -18 5 -16 0 -22 -2 -12 -5z"/>
<path d="M922 2960 c0 -14 2 -19 5 -12 2 6 2 18 0 25 -3 6 -5 1 -5 -13z"/>
<path d="M688 2943 c7 -3 16 -2 19 1 4 3 -2 6 -13 5 -11 0 -14 -3 -6 -6z"/>
<path d="M860 2910 c0 -5 5 -10 10 -10 6 0 10 5 10 10 0 6 -4 10 -10 10 -5 0
-10 -4 -10 -10z"/>
<path d="M570 2763 c0 -21 -3 -24 -12 -15 -7 7 -22 12 -34 12 -18 0 -23 -6
-26 -32 l-3 -33 -134 -2 c-74 -1 -139 -7 -144 -12 -7 -7 -6 -29 2 -67 6 -32
11 -91 11 -133 1 -84 12 -113 56 -142 36 -24 56 -24 77 -1 26 28 21 56 -11 68
-21 8 -31 20 -35 44 -4 17 -4 36 -1 41 10 17 47 9 70 -16 13 -14 34 -25 49
-25 24 0 25 3 25 55 l0 55 48 0 c62 0 95 18 108 59 6 18 18 38 27 43 26 14 22
74 -8 103 -34 34 -65 33 -65 -2z"/>
<path d="M2900 2692 c0 -21 7 -48 16 -60 14 -20 23 -22 125 -22 128 0 149 11
149 80 0 36 -2 40 -25 40 -21 0 -25 -5 -25 -30 0 -36 -37 -63 -52 -36 -12 22
-88 23 -88 1 0 -18 -5 -18 -31 -5 -12 7 -19 21 -19 40 0 25 -4 30 -25 30 -22
0 -25 -4 -25 -38z"/>
<path d="M750 2703 c0 -13 5 -23 10 -23 13 0 13 11 0 30 -8 12 -10 11 -10 -7z"/>
<path d="M840 2710 c0 -5 5 -10 11 -10 5 0 7 5 4 10 -3 6 -8 10 -11 10 -2 0
-4 -4 -4 -10z"/>
<path d="M900 2705 c0 -8 7 -15 15 -15 9 0 12 6 9 15 -4 8 -10 15 -15 15 -5 0
-9 -7 -9 -15z"/>
<path d="M1901 2705 c-49 -15 -104 -63 -121 -106 -7 -16 -20 -31 -29 -34 -10
-3 -30 -19 -46 -35 -36 -38 -39 -102 -7 -148 28 -38 28 -42 -3 -42 -31 0 -33
-22 -5 -50 12 -12 33 -20 54 -20 29 0 34 -4 39 -29 10 -47 77 -97 77 -57 0 8
7 16 15 20 17 6 9 36 -11 36 -20 0 -44 41 -44 76 0 23 -5 33 -20 37 -16 4 -20
14 -20 50 0 53 16 70 30 33 14 -39 30 -31 30 14 0 27 4 40 14 40 8 0 17 15 20
35 4 19 10 35 15 35 4 0 15 -16 24 -35 17 -35 17 -35 81 -35 l65 0 6 -33 c4
-18 6 -37 5 -42 -5 -22 1 -27 15 -15 8 7 15 23 15 37 0 20 4 24 23 21 19 -3
22 -9 22 -53 0 -44 -3 -50 -22 -53 -17 -2 -23 -10 -23 -27 0 -39 -18 -75 -45
-87 -30 -14 -32 -28 -5 -35 11 -3 20 -12 20 -19 0 -42 64 7 74 57 4 22 11 29
29 29 24 0 67 37 67 58 0 7 -9 12 -20 12 -26 0 -25 6 5 42 51 60 25 152 -52
184 -18 8 -33 20 -33 27 0 19 -61 83 -95 100 -47 24 -96 28 -144 12z"/>
<path d="M746 2655 c4 -8 10 -15 15 -15 4 0 6 7 3 15 -4 8 -10 15 -15 15 -4 0
-6 -7 -3 -15z"/>
<path d="M688 2643 c7 -3 16 -2 19 1 4 3 -2 6 -13 5 -11 0 -14 -3 -6 -6z"/>
<path d="M825 2630 c27 -12 43 -12 25 0 -8 5 -22 9 -30 9 -10 0 -8 -3 5 -9z"/>
<path d="M2960 2570 c0 -11 -7 -20 -15 -20 -8 0 -15 -5 -15 -11 0 -5 -4 -8 -8
-5 -13 8 -112 -21 -132 -39 -11 -10 -29 -62 -45 -133 -16 -64 -31 -123 -35
-130 -4 -9 -21 20 -45 75 -21 48 -49 113 -64 143 -25 54 -26 54 -31 25 -5 -27
-10 -31 -56 -40 l-52 -10 23 -50 c12 -27 29 -66 38 -85 9 -19 34 -75 54 -125
55 -131 77 -155 142 -155 39 0 96 49 107 92 5 22 11 -42 17 -195 5 -125 7
-230 5 -232 -2 -2 -69 -5 -148 -6 -135 -1 -145 0 -145 17 0 12 8 20 22 22 31
5 45 26 41 64 -2 26 -10 36 -35 48 -18 8 -33 20 -33 26 0 8 -25 12 -70 12
l-70 0 0 -94 0 -94 -45 0 c-25 0 -45 5 -45 10 0 6 4 10 10 10 13 0 40 54 40
79 0 35 -130 339 -148 346 -28 12 -126 34 -148 35 -21 0 -22 -5 -29 -137 -9
-189 -3 -177 -87 -170 -39 3 -72 7 -73 9 -2 2 -8 68 -14 147 -5 78 -12 145
-15 148 -7 7 -136 -19 -136 -28 0 -4 -8 -6 -17 -5 -20 1 -70 -87 -53 -92 17
-6 12 -22 -41 -152 -28 -69 -55 -141 -60 -160 l-10 -35 -597 0 -597 0 -53 24
c-51 23 -122 91 -122 117 0 7 29 22 65 34 l65 22 62 -25 c107 -43 158 -44 263
-6 50 17 91 33 93 34 7 6 -84 243 -101 262 -12 13 -42 27 -76 34 -30 6 -61 13
-67 16 -7 2 -12 -2 -11 -9 1 -33 -5 -45 -32 -61 -47 -28 -98 -22 -132 14 -16
17 -29 38 -29 46 0 11 -7 13 -28 9 -15 -3 -49 -8 -75 -12 -65 -9 -107 -44
-107 -89 0 -19 14 -70 30 -115 17 -45 30 -86 30 -91 0 -5 -27 -9 -60 -9 l-60
0 0 -198 c0 -183 1 -199 18 -199 9 1 47 0 85 -1 l67 -2 0 -73 c0 -43 5 -78 12
-85 9 -9 1 -12 -38 -13 -79 -1 -108 -7 -121 -25 -19 -26 -16 -58 7 -79 19 -17
43 -18 281 -19 252 -1 260 -2 264 -21 8 -43 24 -213 24 -273 0 -35 3 -67 6
-72 2 -4 25 -5 50 -2 25 2 45 2 45 -2 0 -3 -20 -47 -45 -96 -41 -81 -47 -89
-64 -78 -31 19 -51 3 -51 -42 l0 -41 42 2 c24 1 46 4 51 6 4 2 129 4 278 3
l270 -1 -3 23 c-2 18 -15 25 -68 39 -86 23 -110 23 -135 -1 -20 -19 -21 -19
-104 3 -65 17 -85 19 -89 9 -10 -31 -128 -61 -120 -29 9 35 109 215 122 220 9
4 13 13 10 21 -3 8 5 35 19 61 l23 47 -4 -61 -4 -61 102 0 102 0 -6 53 c-4 28
-10 131 -15 226 l-10 175 67 128 66 128 208 0 c201 0 208 -1 208 -20 0 -31 42
-52 97 -49 42 2 57 -3 111 -39 41 -27 64 -37 67 -29 2 6 13 39 23 72 l19 60
91 3 91 3 11 -43 c6 -24 17 -58 24 -76 l12 -33 26 21 c14 11 31 20 37 20 6 0
11 5 11 10 0 6 11 16 25 22 22 10 24 16 19 45 l-6 33 312 0 c292 0 311 -1 306
-17 -3 -10 -17 -97 -32 -193 l-26 -174 21 -196 c12 -107 21 -223 21 -258 l0
-63 98 3 97 3 3 48 c2 26 -1 47 -7 47 -13 0 -18 27 -41 232 l-20 177 25 163
c14 90 28 173 31 186 4 21 9 23 72 20 l67 -3 3 -107 3 -108 -53 0 c-66 0 -98
-20 -98 -60 0 -46 23 -60 97 -60 l66 0 -8 -172 c-4 -95 -11 -198 -16 -228 -5
-30 -9 -74 -9 -96 0 -33 -4 -43 -20 -47 -16 -4 -20 -14 -20 -46 0 -39 1 -41
31 -41 31 0 31 1 27 45 l-3 45 93 0 92 0 -2 102 c-2 57 -2 176 0 266 l2 162
69 0 c38 0 83 3 100 6 30 6 31 7 31 65 l0 59 -99 0 -100 0 -3 85 -3 85 103 0
102 0 0 275 0 275 -26 0 c-24 0 -25 2 -17 33 17 68 6 110 -74 283 l-79 169
-97 23 c-80 20 -97 27 -97 43 0 17 -8 19 -85 19 -78 0 -85 -2 -85 -20z m369
-407 l20 -52 -21 -62 c-27 -81 -36 -62 -37 81 -1 113 5 118 38 33z m-1108
-310 c27 -64 21 -74 -38 -67 -54 7 -58 10 -68 43 -7 22 -5 23 18 17 14 -3 32
-9 41 -12 13 -5 16 1 16 30 0 20 2 36 5 36 3 0 15 -21 26 -47z m-400 -10 c-7
-25 -13 -29 -59 -33 -29 -3 -52 -3 -52 0 1 17 24 36 57 46 59 18 62 17 54 -13z
m767 -42 c8 -5 12 -21 10 -37 -2 -21 -9 -30 -25 -32 -20 -3 -23 1 -23 31 0 45
11 56 38 38z m718 -7 c59 -17 59 -16 43 -80 l-11 -44 -57 -1 c-87 -2 -100 3
-101 41 0 19 51 100 63 100 5 0 33 -7 63 -16z m-1285 -64 c5 0 8 -11 7 -25 -2
-26 -5 -27 -93 -28 -33 0 -41 4 -43 20 -3 17 5 22 45 31 26 5 54 8 61 6 8 -2
18 -4 23 -4z m-1465 -119 c-3 -5 1 -11 9 -15 8 -3 15 0 15 7 0 9 3 8 9 -1 10
-17 114 -14 107 3 -5 13 41 19 49 6 3 -5 -4 -7 -16 -4 -18 5 -20 2 -17 -28 l3
-34 178 -3 c97 -1 177 -6 177 -10 0 -4 -19 -44 -42 -89 l-41 -81 -20 24 c-30
39 -61 49 -244 84 l-171 33 -4 54 c-1 30 -1 57 1 59 8 7 12 4 7 -5z m235 -327
l37 -6 7 -102 c6 -100 6 -102 -25 -164 -17 -35 -33 -62 -35 -60 -2 1 -10 62
-19 133 -9 72 -18 147 -21 168 -6 40 -5 41 56 31z"/>
<path d="M1622 1284 c-26 -18 -30 -65 -6 -88 9 -9 32 -16 56 -16 37 0 40 2 34
23 -3 12 -6 39 -6 60 0 34 -2 37 -28 37 -15 0 -38 -7 -50 -16z"/>
<path d="M2219 1249 c2 -36 0 -49 -8 -45 -7 5 -9 1 -5 -8 14 -37 74 -2 74 42
0 24 -32 62 -52 62 -9 0 -12 -15 -9 -51z"/>
<path d="M1771 641 c-8 -5 -29 -7 -48 -4 l-33 6 0 -44 0 -44 251 -1 250 -1 -3
41 c-3 37 -6 41 -33 45 -71 9 -371 10 -384 2z"/>
<path d="M112 631 c-8 -5 -12 -22 -10 -42 2 -29 7 -34 31 -37 25 -3 27 -1 27
36 0 27 -5 42 -16 46 -19 7 -16 7 -32 -3z"/>
<path d="M417 634 c-4 -4 -7 -25 -7 -46 0 -36 2 -38 31 -38 29 0 30 1 27 43
-2 33 -7 43 -23 45 -12 2 -24 0 -28 -4z"/>
<path d="M3390 596 c0 -45 1 -46 31 -46 29 0 30 1 27 43 -3 38 -6 42 -30 45
-27 3 -28 2 -28 -42z"/>
</g>
</svg>
